<mxfile host="app.diagrams.net" agent="Mozilla/5.0 (Windows NT 10.0; Win64; x64; rv:142.0) Gecko/20100101 Firefox/142.0" version="28.2.1">
  <diagram name="Página-1" id="AfriAHjw1pAUH0bZ9QxR">
    <mxGraphModel dx="948" dy="543" grid="1" gridSize="10" guides="1" tooltips="1" connect="1" arrows="1" fold="1" page="1" pageScale="1" pageWidth="827" pageHeight="1169" math="0" shadow="0">
      <root>
        <mxCell id="0" />
        <mxCell id="1" parent="0" />
        <mxCell id="Az-vTevXM7hwlDqteloD-22" value="" style="rounded=0;whiteSpace=wrap;html=1;strokeColor=#BAC8D3;fontColor=#EEEEEE;fillColor=light-dark(#FFFFFF,#131313);" vertex="1" parent="1">
          <mxGeometry x="95" y="600" width="710" height="430" as="geometry" />
        </mxCell>
        <mxCell id="Az-vTevXM7hwlDqteloD-10" value="" style="rounded=0;whiteSpace=wrap;html=1;strokeColor=#BAC8D3;fontColor=#EEEEEE;fillColor=light-dark(#FFFFFF,#131313);" vertex="1" parent="1">
          <mxGeometry x="70" y="80" width="710" height="430" as="geometry" />
        </mxCell>
        <mxCell id="Az-vTevXM7hwlDqteloD-35" style="edgeStyle=orthogonalEdgeStyle;rounded=0;orthogonalLoop=1;jettySize=auto;html=1;strokeColor=#0B4D6A;" edge="1" parent="1" source="Az-vTevXM7hwlDqteloD-1" target="Az-vTevXM7hwlDqteloD-23">
          <mxGeometry relative="1" as="geometry" />
        </mxCell>
        <mxCell id="Az-vTevXM7hwlDqteloD-1" value="&lt;span&gt;Alumno&lt;/span&gt;" style="rounded=0;whiteSpace=wrap;html=1;labelBackgroundColor=none;fillColor=light-dark(#09555B,#2A9391);strokeColor=light-dark(#BAC8D3,#A6A6A6);fontColor=#EEEEEE;fontFamily=Lucida Console;fontStyle=1;strokeWidth=2;" vertex="1" parent="1">
          <mxGeometry x="380" y="640" width="120" height="60" as="geometry" />
        </mxCell>
        <mxCell id="Az-vTevXM7hwlDqteloD-2" value="&lt;div&gt;&lt;span&gt;Docentes&lt;/span&gt;&lt;/div&gt;" style="rounded=0;whiteSpace=wrap;html=1;labelBackgroundColor=none;fillColor=light-dark(#09555B,#2A9391);strokeColor=light-dark(#BAC8D3,#A6A6A6);fontColor=#EEEEEE;fontFamily=Lucida Console;fontStyle=1;strokeWidth=2;" vertex="1" parent="1">
          <mxGeometry x="320" y="200" width="120" height="60" as="geometry" />
        </mxCell>
        <mxCell id="Az-vTevXM7hwlDqteloD-3" value="&lt;b&gt;Administración&lt;/b&gt;" style="rounded=0;whiteSpace=wrap;html=1;labelBackgroundColor=none;fillColor=light-dark(#09555B,#2A9391);strokeColor=light-dark(#BAC8D3,#A6A6A6);fontColor=#EEEEEE;fontFamily=Lucida Console;strokeWidth=2;" vertex="1" parent="1">
          <mxGeometry x="450" y="200" width="140" height="60" as="geometry" />
        </mxCell>
        <mxCell id="Az-vTevXM7hwlDqteloD-4" value="&lt;font face=&quot;Lucida Console&quot;&gt;&lt;b&gt;Proceso&lt;/b&gt;&lt;/font&gt;" style="rounded=1;whiteSpace=wrap;html=1;strokeColor=light-dark(#005700,#A6A6A6);fontColor=#ffffff;fillColor=#008a00;strokeWidth=2;" vertex="1" parent="1">
          <mxGeometry x="170" y="280" width="120" height="60" as="geometry" />
        </mxCell>
        <mxCell id="Az-vTevXM7hwlDqteloD-18" value="" style="group" vertex="1" connectable="0" parent="1">
          <mxGeometry x="360" y="310" width="180" height="30" as="geometry" />
        </mxCell>
        <mxCell id="Az-vTevXM7hwlDqteloD-13" value="Librería" style="group;fillColor=light-dark(#FFFFFF,#E38E7A);gradientColor=none;strokeColor=light-dark(#000000,#A6A6A6);fontColor=light-dark(#000000,#000000);fontFamily=Lucida Console;strokeWidth=2;" vertex="1" connectable="0" parent="Az-vTevXM7hwlDqteloD-18">
          <mxGeometry width="180" height="30" as="geometry" />
        </mxCell>
        <mxCell id="Az-vTevXM7hwlDqteloD-15" value="" style="endArrow=none;html=1;rounded=0;strokeColor=light-dark(#0B4D6A,#A6A6A6);strokeWidth=2;" edge="1" parent="Az-vTevXM7hwlDqteloD-18">
          <mxGeometry width="50" height="50" relative="1" as="geometry">
            <mxPoint x="12" as="sourcePoint" />
            <mxPoint x="12" y="30" as="targetPoint" />
          </mxGeometry>
        </mxCell>
        <mxCell id="Az-vTevXM7hwlDqteloD-23" value="&lt;font face=&quot;Lucida Console&quot;&gt;&lt;b&gt;Gestión del Alumno&lt;/b&gt;&lt;/font&gt;" style="rounded=1;whiteSpace=wrap;html=1;strokeColor=light-dark(#005700,#A6A6A6);fontColor=#ffffff;fillColor=#008a00;strokeWidth=2;" vertex="1" parent="1">
          <mxGeometry x="345" y="780" width="190" height="110" as="geometry" />
        </mxCell>
        <mxCell id="Az-vTevXM7hwlDqteloD-46" style="edgeStyle=orthogonalEdgeStyle;rounded=0;orthogonalLoop=1;jettySize=auto;html=1;entryX=0.5;entryY=1;entryDx=0;entryDy=0;strokeColor=#0B4D6A;" edge="1" parent="1" target="Az-vTevXM7hwlDqteloD-23">
          <mxGeometry relative="1" as="geometry">
            <mxPoint x="440" y="970" as="sourcePoint" />
          </mxGeometry>
        </mxCell>
        <mxCell id="Az-vTevXM7hwlDqteloD-56" value="" style="group;fontFamily=Lucida Console;fontStyle=1" vertex="1" connectable="0" parent="1">
          <mxGeometry x="370" y="970" width="140" height="30" as="geometry" />
        </mxCell>
        <mxCell id="Az-vTevXM7hwlDqteloD-54" value="&lt;font face=&quot;Lucida Console&quot;&gt;&lt;b&gt;Alumnos&lt;/b&gt;&lt;/font&gt;" style="rounded=0;whiteSpace=wrap;html=1;strokeColor=light-dark(#BAC8D3,#A6A6A6);fontColor=#EEEEEE;fillColor=light-dark(#09555B,#FF6666);strokeWidth=2;" vertex="1" parent="Az-vTevXM7hwlDqteloD-56">
          <mxGeometry width="140" height="30" as="geometry" />
        </mxCell>
        <mxCell id="Az-vTevXM7hwlDqteloD-55" value="" style="endArrow=none;html=1;rounded=0;strokeColor=light-dark(#0B4D6A,#A6A6A6);exitX=0.25;exitY=0;exitDx=0;exitDy=0;entryX=0.25;entryY=1;entryDx=0;entryDy=0;strokeWidth=2;" edge="1" parent="Az-vTevXM7hwlDqteloD-56">
          <mxGeometry width="50" height="50" relative="1" as="geometry">
            <mxPoint x="14.800000000000011" as="sourcePoint" />
            <mxPoint x="14.800000000000011" y="30" as="targetPoint" />
          </mxGeometry>
        </mxCell>
        <mxCell id="Az-vTevXM7hwlDqteloD-57" value="" style="group;fontFamily=Lucida Console;fontStyle=1" vertex="1" connectable="0" parent="1">
          <mxGeometry x="573" y="970" width="200" height="30" as="geometry" />
        </mxCell>
        <mxCell id="Az-vTevXM7hwlDqteloD-58" value="&lt;div&gt;Alumnos - Materias&lt;/div&gt;" style="rounded=0;whiteSpace=wrap;html=1;strokeColor=light-dark(#BAC8D3,#A6A6A6);fontColor=#EEEEEE;fillColor=light-dark(#09555B,#FF6666);strokeWidth=2;fontFamily=Lucida Console;fontStyle=1" vertex="1" parent="Az-vTevXM7hwlDqteloD-57">
          <mxGeometry width="200" height="30" as="geometry" />
        </mxCell>
        <mxCell id="Az-vTevXM7hwlDqteloD-59" value="" style="endArrow=none;html=1;rounded=0;strokeColor=light-dark(#0B4D6A,#A6A6A6);exitX=0.25;exitY=0;exitDx=0;exitDy=0;entryX=0.25;entryY=1;entryDx=0;entryDy=0;strokeWidth=2;" edge="1" parent="Az-vTevXM7hwlDqteloD-57">
          <mxGeometry width="50" height="50" relative="1" as="geometry">
            <mxPoint x="15.428571428571443" as="sourcePoint" />
            <mxPoint x="15.428571428571443" y="30" as="targetPoint" />
          </mxGeometry>
        </mxCell>
        <mxCell id="Az-vTevXM7hwlDqteloD-64" value="" style="group;fontFamily=Lucida Console;fontStyle=1" vertex="1" connectable="0" parent="1">
          <mxGeometry x="135" y="970" width="180" height="30" as="geometry" />
        </mxCell>
        <mxCell id="Az-vTevXM7hwlDqteloD-65" value="&lt;font face=&quot;Lucida Console&quot;&gt;&lt;b&gt;Administración&lt;/b&gt;&lt;/font&gt;" style="rounded=0;whiteSpace=wrap;html=1;strokeColor=light-dark(#BAC8D3,#A6A6A6);fontColor=#EEEEEE;fillColor=light-dark(#09555B,#FF6666);strokeWidth=2;" vertex="1" parent="Az-vTevXM7hwlDqteloD-64">
          <mxGeometry x="-10" width="180" height="30" as="geometry" />
        </mxCell>
        <mxCell id="Az-vTevXM7hwlDqteloD-66" value="" style="endArrow=none;html=1;rounded=0;strokeColor=light-dark(#0B4D6A,#A6A6A6);exitX=0.25;exitY=0;exitDx=0;exitDy=0;entryX=0.25;entryY=1;entryDx=0;entryDy=0;strokeWidth=2;" edge="1" parent="Az-vTevXM7hwlDqteloD-64">
          <mxGeometry width="50" height="50" relative="1" as="geometry">
            <mxPoint x="15.67058823529413" as="sourcePoint" />
            <mxPoint x="15.67058823529413" y="30" as="targetPoint" />
          </mxGeometry>
        </mxCell>
        <mxCell id="Az-vTevXM7hwlDqteloD-71" style="edgeStyle=orthogonalEdgeStyle;rounded=0;orthogonalLoop=1;jettySize=auto;html=1;entryX=0;entryY=0.5;entryDx=0;entryDy=0;strokeColor=#0B4D6A;" edge="1" parent="1" source="Az-vTevXM7hwlDqteloD-65" target="Az-vTevXM7hwlDqteloD-23">
          <mxGeometry relative="1" as="geometry">
            <Array as="points">
              <mxPoint x="320" y="985" />
              <mxPoint x="320" y="835" />
            </Array>
          </mxGeometry>
        </mxCell>
        <mxCell id="Az-vTevXM7hwlDqteloD-72" style="edgeStyle=orthogonalEdgeStyle;rounded=0;orthogonalLoop=1;jettySize=auto;html=1;entryX=1;entryY=0.5;entryDx=0;entryDy=0;strokeColor=#0B4D6A;" edge="1" parent="1" source="Az-vTevXM7hwlDqteloD-58" target="Az-vTevXM7hwlDqteloD-23">
          <mxGeometry relative="1" as="geometry">
            <Array as="points">
              <mxPoint x="560" y="985" />
              <mxPoint x="560" y="835" />
            </Array>
          </mxGeometry>
        </mxCell>
      </root>
    </mxGraphModel>
  </diagram>
</mxfile>
